<svg id="Capa_1" enable-background="new 0 0 510 510" height="512" viewBox="0 0 510 510" width="512" xmlns="http://www.w3.org/2000/svg"><g><g fill="#b9e68b"><path id="XMLID_1312_" d="m60 30h30v60h-30z"/><path id="XMLID_1315_" d="m150 30h30v60h-30z"/><path id="XMLID_1318_" d="m265 85-10 5h-15v-60h15l10 5z"/></g><path id="XMLID_1321_" d="m255 30h15v60h-15z" fill="#73ca7a"/><path id="XMLID_1324_" d="m330 30h30v60h-30z" fill="#73ca7a"/><path id="XMLID_1327_" d="m420 30h30v60h-30z" fill="#73ca7a"/><path id="XMLID_1264_" d="m500 470-245 10h-255v-315l255-30 245 10z" fill="#8dc2eb"/><path id="XMLID_1267_" d="m510 480h-255v-325l255 10z" fill="#5e9ff6"/><path id="XMLID_1270_" d="m500 155-245 10h-255v-90h255l245 10z" fill="#4e6ba6"/><path id="XMLID_1273_" d="m255 75h255v90h-255z" fill="#28487a"/><path id="XMLID_1276_" d="m60 210h390v210h-390z" fill="#eef4ff"/><path id="XMLID_1279_" d="m255 210h195v210h-195z" fill="#d9e6fc"/><path id="XMLID_1282_" d="m120 270h30v30h-30z" fill="#db686b"/><path id="XMLID_1285_" d="m180 270h30v30h-30z" fill="#b9e68b"/><path id="XMLID_1288_" d="m240 270h30v30h-30z" fill="#f0ce46"/><path id="XMLID_1291_" d="m300 270h30v30h-30z" fill="#e8a43e"/><path id="XMLID_1294_" d="m360 270h30v30h-30z" fill="#e8a43e"/><path id="XMLID_1297_" d="m120 330h30v30h-30z" fill="#db686b"/><path id="XMLID_1300_" d="m180 330h30v30h-30z" fill="#f0ce46"/><path id="XMLID_1303_" d="m240 330h30v30h-30z" fill="#f0ce46"/><path id="XMLID_1306_" d="m255 270h15v30h-15z" fill="#e8a43e"/><path id="XMLID_1309_" d="m255 330h15v30h-15z" fill="#e8a43e"/></g></svg>